<?xml version="1.0" encoding="utf-8"?>
<!-- Generator: Adobe Illustrator 27.2.0, SVG Export Plug-In . SVG Version: 6.00 Build 0)  -->
<svg version="1.1" id="Layer_2_00000081635470879216636460000007133625383555974294_"
	 xmlns="http://www.w3.org/2000/svg" xmlns:xlink="http://www.w3.org/1999/xlink" x="0px" y="0px" viewBox="0 0 197.1 196.9"
	 style="enable-background:new 0 0 197.1 196.9;" xml:space="preserve">
<style type="text/css">
	.st0{fill:#FFFFFF;}
</style>
<g>
	<path class="st0" d="M181.6,62.4c-4.6-11-11.8-21.3-20.1-29.6c-8.3-8.3-19-14.5-30-19.1C120.9,9.2,109,7,96.8,7s-24.8,0.4-35.5,4.9
		c-11,4.6-20.3,13.3-28.6,21.6c-8.3,8.3-18,17.2-22.6,28.2c-4.4,10.7-3,23.6-3,35.9s0.9,24.2,5.3,34.9c4.6,11,13.9,18.8,22.2,27.2
		c8.3,8.3,15.9,18.3,26.9,22.8c10.7,4.4,22.9,7.4,35.2,7.4s24.3-3.6,34.9-8.1c11-4.6,21-11.7,29.3-20c8.3-8.3,15-18.5,19.6-29.5
		c4.4-10.6,9.5-22.5,9.5-34.7S186,73,181.6,62.4L181.6,62.4z M122.4,149.7l-19.4-2.9l5.5-37.6L68,140.6L56,125l35.6-27.4L56,70.1
		l12-15.6l40.6,31.3L103,48.2l19.4-2.9l7.7,52.2L122.4,149.7L122.4,149.7z"/>
</g>
</svg>
